<?xml version="1.0" encoding="UTF-8" standalone="no"?>
<!DOCTYPE svg PUBLIC "-//W3C//DTD SVG 1.1//EN"
 "http://www.w3.org/Graphics/SVG/1.1/DTD/svg11.dtd">
<!-- Generated by graphviz version 2.48.0 (20210717.1556)
 -->
<!-- Title: giant Pages: 1 -->
<svg width="1167pt" height="116pt"
 viewBox="0.00 0.00 1167.00 116.00" xmlns="http://www.w3.org/2000/svg" xmlns:xlink="http://www.w3.org/1999/xlink">
<g id="graph0" class="graph" transform="scale(1 1) rotate(0) translate(4 112)">
<title>giant</title>
<polygon fill="white" stroke="transparent" points="-4,4 -4,-112 1163,-112 1163,4 -4,4"/>
<!-- giant -->
<g id="node1" class="node">
<title>giant</title>
<g id="a_node1"><a xlink:href="../giant.html" xlink:title="giant" target="_top">
<polygon fill="gray" stroke="black" points="604,-108 550,-108 550,-72 604,-72 604,-108"/>
<text text-anchor="middle" x="577" y="-86.3" font-family="Times,serif" font-size="14.00">giant</text>
</a>
</g>
</g>
<!-- image -->
<g id="node2" class="node">
<title>image</title>
<g id="a_node2"><a xlink:href="../giant.image.html" xlink:title="image" target="_top">
<polygon fill="lightblue" stroke="black" points="54,-36 0,-36 0,0 54,0 54,-36"/>
<text text-anchor="middle" x="27" y="-14.3" font-family="Times,serif" font-size="14.00">image</text>
</a>
</g>
</g>
<!-- giant&#45;&gt;image -->
<g id="edge1" class="edge">
<title>giant&#45;&gt;image</title>
<path fill="none" stroke="black" d="M549.93,-89.39C473.78,-89.82 251.59,-86.54 63.91,-35.68"/>
<polygon fill="black" stroke="black" points="64.72,-32.28 54.15,-32.99 62.85,-39.02 64.72,-32.28"/>
</g>
<!-- camera -->
<g id="node3" class="node">
<title>camera</title>
<g id="a_node3"><a xlink:href="../giant.camera.html" xlink:title="camera" target="_top">
<polygon fill="lightblue" stroke="black" points="129.5,-36 72.5,-36 72.5,0 129.5,0 129.5,-36"/>
<text text-anchor="middle" x="101" y="-14.3" font-family="Times,serif" font-size="14.00">camera</text>
</a>
</g>
</g>
<!-- giant&#45;&gt;camera -->
<g id="edge2" class="edge">
<title>giant&#45;&gt;camera</title>
<path fill="none" stroke="black" d="M549.79,-88.52C481.58,-86.74 298.05,-78.32 139.63,-35.64"/>
<polygon fill="black" stroke="black" points="140.28,-32.19 129.71,-32.92 138.43,-38.94 140.28,-32.19"/>
</g>
<!-- camera_models -->
<g id="node4" class="node">
<title>camera_models</title>
<g id="a_node4"><a xlink:href="../giant.camera_models.html" xlink:title="camera_models" target="_top">
<polygon fill="lightblue" stroke="black" points="252,-36 148,-36 148,0 252,0 252,-36"/>
<text text-anchor="middle" x="200" y="-14.3" font-family="Times,serif" font-size="14.00">camera_models</text>
</a>
</g>
</g>
<!-- giant&#45;&gt;camera_models -->
<g id="edge3" class="edge">
<title>giant&#45;&gt;camera_models</title>
<path fill="none" stroke="black" d="M549.76,-85.42C496.36,-78.19 374.07,-60.6 261.93,-36.09"/>
<polygon fill="black" stroke="black" points="262.67,-32.67 252.15,-33.92 261.16,-39.5 262.67,-32.67"/>
</g>
<!-- opnav_class -->
<g id="node5" class="node">
<title>opnav_class</title>
<g id="a_node5"><a xlink:href="../giant.opnav_class.html" xlink:title="opnav_class" target="_top">
<polygon fill="lightblue" stroke="black" points="355.5,-36 270.5,-36 270.5,0 355.5,0 355.5,-36"/>
<text text-anchor="middle" x="313" y="-14.3" font-family="Times,serif" font-size="14.00">opnav_class</text>
</a>
</g>
</g>
<!-- giant&#45;&gt;opnav_class -->
<g id="edge4" class="edge">
<title>giant&#45;&gt;opnav_class</title>
<path fill="none" stroke="black" d="M549.92,-82.97C511.03,-74.17 436.96,-56.82 365.4,-36.31"/>
<polygon fill="black" stroke="black" points="366.36,-32.94 355.78,-33.53 364.41,-39.67 366.36,-32.94"/>
</g>
<!-- rotations -->
<g id="node6" class="node">
<title>rotations</title>
<g id="a_node6"><a xlink:href="../giant.rotations.html" xlink:title="rotations" target="_top">
<polygon fill="lightblue" stroke="black" points="438.5,-36 373.5,-36 373.5,0 438.5,0 438.5,-36"/>
<text text-anchor="middle" x="406" y="-14.3" font-family="Times,serif" font-size="14.00">rotations</text>
</a>
</g>
</g>
<!-- giant&#45;&gt;rotations -->
<g id="edge5" class="edge">
<title>giant&#45;&gt;rotations</title>
<path fill="none" stroke="black" d="M549.9,-77.91C522.51,-66.69 479.79,-49.21 448,-36.19"/>
<polygon fill="black" stroke="black" points="449.1,-32.86 438.52,-32.31 446.45,-39.34 449.1,-32.86"/>
</g>
<!-- image_processing -->
<g id="node7" class="node">
<title>image_processing</title>
<g id="a_node7"><a xlink:href="../giant.image_processing.html" xlink:title="image_processing" target="_top">
<polygon fill="lightblue" stroke="black" points="575,-36 457,-36 457,0 575,0 575,-36"/>
<text text-anchor="middle" x="516" y="-14.3" font-family="Times,serif" font-size="14.00">image_processing</text>
</a>
</g>
</g>
<!-- giant&#45;&gt;image_processing -->
<g id="edge6" class="edge">
<title>giant&#45;&gt;image_processing</title>
<path fill="none" stroke="black" d="M561.92,-71.7C554.61,-63.3 545.69,-53.07 537.66,-43.86"/>
<polygon fill="black" stroke="black" points="540.11,-41.34 530.91,-36.1 534.84,-45.94 540.11,-41.34"/>
</g>
<!-- stellar_opnav -->
<g id="node8" class="node">
<title>stellar_opnav</title>
<g id="a_node8"><a xlink:href="../giant.stellar_opnav.html" xlink:title="stellar_opnav" target="_top">
<polygon fill="lightyellow" stroke="black" points="685,-36 593,-36 593,0 685,0 685,-36"/>
<text text-anchor="middle" x="639" y="-14.3" font-family="Times,serif" font-size="14.00">stellar_opnav</text>
</a>
</g>
</g>
<!-- giant&#45;&gt;stellar_opnav -->
<g id="edge7" class="edge">
<title>giant&#45;&gt;stellar_opnav</title>
<path fill="none" stroke="black" d="M592.33,-71.7C599.76,-63.3 608.82,-53.07 616.98,-43.86"/>
<polygon fill="black" stroke="black" points="619.84,-45.91 623.85,-36.1 614.6,-41.27 619.84,-45.91"/>
</g>
<!-- calibration -->
<g id="node9" class="node">
<title>calibration</title>
<g id="a_node9"><a xlink:href="../giant.calibration.html" xlink:title="calibration" target="_top">
<polygon fill="lightyellow" stroke="black" points="779,-36 703,-36 703,0 779,0 779,-36"/>
<text text-anchor="middle" x="741" y="-14.3" font-family="Times,serif" font-size="14.00">calibration</text>
</a>
</g>
</g>
<!-- giant&#45;&gt;calibration -->
<g id="edge8" class="edge">
<title>giant&#45;&gt;calibration</title>
<path fill="none" stroke="black" d="M604.08,-77.44C628.28,-67.11 664.28,-51.75 693.29,-39.36"/>
<polygon fill="black" stroke="black" points="695.01,-42.44 702.83,-35.29 692.26,-36 695.01,-42.44"/>
</g>
<!-- catalogues -->
<g id="node10" class="node">
<title>catalogues</title>
<g id="a_node10"><a xlink:href="../giant.catalogues.html" xlink:title="catalogues" target="_top">
<polygon fill="lightyellow" stroke="black" points="873,-36 797,-36 797,0 873,0 873,-36"/>
<text text-anchor="middle" x="835" y="-14.3" font-family="Times,serif" font-size="14.00">catalogues</text>
</a>
</g>
</g>
<!-- giant&#45;&gt;catalogues -->
<g id="edge9" class="edge">
<title>giant&#45;&gt;catalogues</title>
<path fill="none" stroke="black" d="M604.22,-83.09C642.91,-74.49 716.15,-57.47 787.32,-36.06"/>
<polygon fill="black" stroke="black" points="788.34,-39.41 796.89,-33.15 786.3,-32.71 788.34,-39.41"/>
</g>
<!-- relative_opnav -->
<g id="node11" class="node">
<title>relative_opnav</title>
<g id="a_node11"><a xlink:href="../giant.relative_opnav.html" xlink:title="relative_opnav" target="_top">
<polygon fill="lightyellow" stroke="black" points="991,-36 891,-36 891,0 991,0 991,-36"/>
<text text-anchor="middle" x="941" y="-14.3" font-family="Times,serif" font-size="14.00">relative_opnav</text>
</a>
</g>
</g>
<!-- giant&#45;&gt;relative_opnav -->
<g id="edge10" class="edge">
<title>giant&#45;&gt;relative_opnav</title>
<path fill="none" stroke="black" d="M604.12,-85.3C656.01,-78 773.02,-60.5 880.82,-36.14"/>
<polygon fill="black" stroke="black" points="881.92,-39.48 890.88,-33.84 880.36,-32.66 881.92,-39.48"/>
</g>
<!-- ray_tracer -->
<g id="node12" class="node">
<title>ray_tracer</title>
<g id="a_node12"><a xlink:href="../giant.ray_tracer.html" xlink:title="ray_tracer" target="_top">
<polygon fill="lightyellow" stroke="black" points="1082.5,-36 1009.5,-36 1009.5,0 1082.5,0 1082.5,-36"/>
<text text-anchor="middle" x="1046" y="-14.3" font-family="Times,serif" font-size="14.00">ray_tracer</text>
</a>
</g>
</g>
<!-- giant&#45;&gt;ray_tracer -->
<g id="edge11" class="edge">
<title>giant&#45;&gt;ray_tracer</title>
<path fill="none" stroke="black" d="M604.11,-87.76C670.35,-84.27 845.57,-72.32 999.24,-35.84"/>
<polygon fill="black" stroke="black" points="1000.43,-39.15 1009.32,-33.4 998.78,-32.35 1000.43,-39.15"/>
</g>
<!-- utilities -->
<g id="node13" class="node">
<title>utilities</title>
<g id="a_node13"><a xlink:href="../giant.utilities.html" xlink:title="utilities" target="_top">
<polygon fill="lightyellow" stroke="black" points="1159,-36 1101,-36 1101,0 1159,0 1159,-36"/>
<text text-anchor="middle" x="1130" y="-14.3" font-family="Times,serif" font-size="14.00">utilities</text>
</a>
</g>
</g>
<!-- giant&#45;&gt;utilities -->
<g id="edge12" class="edge">
<title>giant&#45;&gt;utilities</title>
<path fill="none" stroke="black" d="M604.08,-89.21C680.24,-89.18 902.55,-84.8 1091.08,-35.73"/>
<polygon fill="black" stroke="black" points="1092.11,-39.08 1100.88,-33.13 1090.32,-32.31 1092.11,-39.08"/>
</g>
</g>
</svg>
